<svg id="Layer_1" data-name="Layer 1" xmlns="http://www.w3.org/2000/svg" viewBox="0 0 661.71 116.03"><defs><style>.cls-1{fill:#fff;}</style></defs><title>Veeam_logo_2017_white</title><path class="cls-1" d="M649.68,2.55a15.61,15.61,0,0,0-17.81,8L588,93.68a7,7,0,0,1-6.38,3.85h0a7,7,0,0,1-6.38-3.85L531.48,10.54a15.83,15.83,0,0,0-29.84,7.38v88.63a7.62,7.62,0,1,0,15.23.55q0-.28,0-.55V17.92c0-.3-.09-.78.37-.89s.62.35.76.61l43.82,83.14a22.44,22.44,0,0,0,39.71,0l43.82-83.14c.14-.27.3-.73.76-.61s.37.59.37.89v88.63a7.62,7.62,0,0,0,15.23.55q0-.28,0-.55V17.92A15.61,15.61,0,0,0,649.68,2.55Z"/><path class="cls-1" d="M128,3.61A7.62,7.62,0,0,0,117.76,6.8l-48,91c-.93,1.77-2.29,2.78-3.73,2.78s-2.8-1-3.73-2.78l-48-91A7.62,7.62,0,1,0,.88,13.9l48,91c3.6,6.83,10,10.91,17.21,10.91S79.7,111.73,83.3,104.9l48-91A7.62,7.62,0,0,0,128,3.63Z"/><path class="cls-1" d="M185.84,0a58,58,0,1,0,46.55,92.63,7.62,7.62,0,1,0-12-9.38l-.21.28a42.79,42.79,0,0,1-76.44-17.91h92.5A7.62,7.62,0,0,0,243.85,58h0A58.08,58.08,0,0,0,185.84,0Zm-42.1,50.4a42.79,42.79,0,0,1,84.2,0Z"/><path class="cls-1" d="M367.58,58a58,58,0,1,0-11.46,34.62,7.62,7.62,0,0,0-12.22-9.1,42.79,42.79,0,0,1-76.44-17.91H360A7.62,7.62,0,0,0,367.58,58ZM267.47,50.4a42.79,42.79,0,0,1,84.2,0Z"/><path class="cls-1" d="M444.4,13.34c-3.5-6.64-9.75-10.6-16.73-10.6s-13.23,4-16.73,10.6L363.62,103a7.62,7.62,0,1,0,13.31,7.43l.17-.33,13-24.73h55.92a7.5,7.5,0,0,0,0-15h-48l26.36-50c.83-1.57,2-2.47,3.25-2.47s2.43.9,3.25,2.47l47.35,89.66a7.62,7.62,0,0,0,13.48-7.1Z"/></svg>